<mxfile host="app.diagrams.net" modified="2024-04-08T06:19:20.615Z" agent="Mozilla/5.0 (Macintosh; Intel Mac OS X 10_15_7) AppleWebKit/537.36 (KHTML, like Gecko) Chrome/123.0.0.0 Safari/537.36" version="24.0.7" etag="CYj1Vxy_HSYmF2aNLCZ9" type="github">
  <diagram name="Page-1" id="iMUTDpLFSvKAjpd02B9K">
    <mxGraphModel>
      <root>
        <mxCell id="0" />
        <mxCell id="1" parent="0" />
      </root>
    </mxGraphModel>
  </diagram>
</mxfile>
